<svg width="54" height="55" viewBox="0 0 54 55" fill="none" xmlns="http://www.w3.org/2000/svg">
<path d="M37.4239 12.7714L37.424 12.7716L37.4336 12.7621C37.945 12.2633 38.5571 11.9608 39.1922 11.876C39.8264 11.7914 40.4721 11.9252 41.0539 12.2704C41.6374 12.6166 42.1358 13.1638 42.478 13.8566C42.8202 14.5497 42.9873 15.3513 42.954 16.1629L42.9536 16.1731V16.1834V42.8907C42.9536 43.6139 42.7101 44.2939 42.2959 44.7839C41.8839 45.2714 41.3449 45.5246 40.8047 45.5246H35.0913V28.2351V27.1225L34.2594 27.8612L23.9761 36.9912L13.6928 27.8612L12.8608 27.1225V28.2351V45.5246H7.1475C6.60729 45.5246 6.06829 45.2714 5.65627 44.7839C5.24211 44.2939 4.99855 43.6139 4.99855 42.8907V16.1834V16.1687L4.99769 16.154C4.9495 15.3354 5.10587 14.5216 5.44259 13.815C5.77927 13.1084 6.27735 12.5478 6.86418 12.1911C7.4493 11.8354 8.10111 11.695 8.74182 11.7774C9.38341 11.8599 10.0021 12.1645 10.518 12.6694L10.5231 12.6744L10.5283 12.6792L13.0215 14.9836L13.0214 14.9837L13.0289 14.9903L23.6441 24.4151L23.9745 24.7083L24.3062 24.4167L34.9215 15.0841L34.9216 15.0842L34.9307 15.0758L37.4239 12.7714Z" fill="white" stroke="black"/>
</svg>
