<svg width="54" height="55" viewBox="0 0 54 55" fill="none" xmlns="http://www.w3.org/2000/svg">
<path d="M24.2688 33.8988L11.0028 49.3438H4.86434L21.5469 29.9205L21.8086 29.6158L21.5675 29.2946L3.82697 5.65625H17.9313L28.381 19.7307L28.7539 20.233L29.1617 19.7585L41.2781 5.65625H47.4057L31.852 23.7581L31.5916 24.0613L31.8299 24.3821L50.3691 49.3438H36.6364L25.0478 33.9242L24.674 33.427L24.2688 33.8988ZM38.033 45.6108L38.183 45.8105H38.4328H42.5566H43.5506L42.9581 45.0125L16.3378 9.15508L16.1879 8.95312H15.9363H11.5066H10.5059L11.1068 9.75336L38.033 45.6108Z" fill="white" stroke="black"/>
</svg>
