<svg width="54" height="55" viewBox="0 0 54 55" fill="none" xmlns="http://www.w3.org/2000/svg">
<path d="M18.7744 42.4215H19.2744V41.9215V20.3852V19.8852H18.7744H12.1971H11.6971V20.3852V41.9215V42.4215H12.1971H18.7744ZM43.3727 42.4215H43.8727V41.9215V30.1061C43.8727 27.1941 43.571 24.5032 42.3538 22.5345C41.1038 20.5129 38.9514 19.3437 35.5018 19.3416C33.2653 19.2601 31.1469 20.2142 29.6977 21.8777V20.3852V19.8852H29.1977H22.8872H22.3872V20.3852V41.9375V42.4375H22.8872H29.4488H29.9488V41.9375V31.2733C29.9488 29.8745 30.0823 28.6025 30.5755 27.6897C30.8157 27.2452 31.1385 26.8918 31.5752 26.6455C32.0146 26.3977 32.5997 26.2413 33.389 26.2413C34.1511 26.2413 34.6799 26.4215 35.0579 26.69C35.4377 26.9597 35.7084 27.3492 35.8996 27.8411C36.293 28.8528 36.311 30.1803 36.311 31.4491V41.9215V42.4215H36.811H43.3727ZM0.5 27.5C0.5 12.5785 12.372 0.5 27 0.5C41.628 0.5 53.5 12.5785 53.5 27.5C53.5 42.4215 41.628 54.5 27 54.5C12.372 54.5 0.5 42.4215 0.5 27.5ZM11.1634 13.5422C11.1634 15.952 13.0897 17.9273 15.4779 17.9273C17.8661 17.9273 19.7924 15.952 19.7924 13.5422C19.7924 11.1323 17.8661 9.15698 15.4779 9.15698C13.0897 9.15698 11.1634 11.1323 11.1634 13.5422Z" fill="white" stroke="black"/>
</svg>
